<?xml version="1.0" encoding="UTF-8"?><svg id="Layer_1" xmlns="http://www.w3.org/2000/svg" xmlns:xlink="http://www.w3.org/1999/xlink" viewBox="0 0 500 500"><defs><style>.cls-1{fill:url(#linear-gradient);}.cls-2{fill:#fff;}.cls-3{fill:#4267b2;}.cls-4{fill:url(#linear-gradient-3);}.cls-5{fill:url(#linear-gradient-2);}</style><linearGradient id="linear-gradient" x1="121" y1="286.6" x2="279.59" y2="128.01" gradientUnits="userSpaceOnUse"><stop offset="0" stop-color="#0ad1ff"/><stop offset="1" stop-color="#3c9dff"/></linearGradient><linearGradient id="linear-gradient-2" x1="1503.77" y1="-1142.13" x2="1637.51" y2="-1142.13" gradientTransform="translate(-939.27 1624.98) rotate(-12.05)" xlink:href="#linear-gradient"/><linearGradient id="linear-gradient-3" x1="349.57" y1="331.3" x2="419.57" y2="331.3" xlink:href="#linear-gradient"/></defs><rect class="cls-3" y="0" width="500" height="500"/><g><g><path class="cls-1" d="M80.43,246.02l9.79-26.16c11.87-.44,22.05-8.14,25.27-18.87,4.19-13.98-5.79-25.23-6.28-25.76,2.84-8.12,5.67-16.23,8.51-24.35,18.63,13.43,63.47,42.83,121.2,52.14,21.33,3.44,43.92,7.08,72.55,1.49,19.42-3.79,35.4-10.62,36.77-7.81,1.55,3.18-17.05,15.65-30.05,23.44-17.7,10.61-49.82,29.47-95.8,38-63.67,11.81-116.59-3.1-141.94-12.12Z"/><path class="cls-5" d="M419.57,146.91l-2.05,13.79c-5.75,1.45-9.92,6.27-10.37,11.85-.59,7.26,5.46,11.71,5.75,11.92-.54,4.26-1.08,8.52-1.61,12.78-10.5-4.61-35.45-14.29-64.61-12.82-10.77,.54-22.18,1.12-35.58,6.83-9.09,3.88-16.17,8.87-17.14,7.65-1.09-1.39,6.69-9.42,12.23-14.58,7.54-7.02,21.25-19.58,42.81-28.54,29.85-12.4,57.25-10.64,70.56-8.88Z"/><path class="cls-2" d="M126.75,235.55l18.91-46.73c.44-1.09-.09-2.34-1.18-2.78h0c-1.09-.44-2.34,.09-2.78,1.18l-18.91,46.73c-.43,1.07,.07,2.3,1.13,2.76h0c1.1,.48,2.38-.04,2.83-1.16Z"/><path class="cls-2" d="M397.2,182.11l4.96-26.11c.12-.61-.29-1.2-.9-1.32h0c-.61-.12-1.2,.29-1.32,.9l-4.96,26.11c-.11,.6,.27,1.18,.87,1.31h0c.62,.14,1.23-.27,1.35-.89Z"/></g><g><path class="cls-2" d="M114.86,353.06h-12.78c-.53,0-.97-.43-.97-.97v-64.01c0-.06,0-.12-.01-.19,.82-.15,1.98-.38,3.35-.74,.83-.22,2.06-.61,3.46-1.06,2.32-.75,4.52-1.53,6.61-2.33,.63-.24,1.31,.23,1.31,.9,0,22.48,0,44.95,0,67.43,0,.53-.43,.97-.97,.97Z"/><path class="cls-2" d="M146.41,308.85c0,2.4-.81,4.42-2.44,6.04s-3.64,2.44-6.04,2.44-4.42-.81-6.04-2.44c-1.62-1.62-2.44-3.64-2.44-6.04s.81-4.39,2.44-5.94c1.62-1.62,3.64-2.44,6.04-2.44s4.42,.81,6.04,2.44c1.62,1.56,2.44,3.54,2.44,5.94Z"/><path class="cls-2" d="M144.76,323.79v28.62c0,.36-.4,.66-.89,.66h-11.96c-.49,0-.89-.3-.89-.66v-28.62c0-.36,.4-.66,.89-.66h11.96c.49,0,.89,.3,.89,.66Z"/><path class="cls-2" d="M209.92,353.06h-14.54c-.28,0-.54-.13-.71-.35l-16.68-21.59c-.32-.41-.92-.47-1.32-.12l-2.58,2.3c-.19,.17-.3,.42-.3,.67v18.18c0,.5-.4,.9-.9,.9h-11.93c-.5,0-.9-.4-.9-.9v-61.1c0-.5,.4-.9,.9-.9h11.93c.5,0,.9,.4,.9,.9v24.93c0,.79,.94,1.2,1.52,.66l17.51-16.45c.17-.16,.39-.24,.62-.24h14.67c.82,0,1.22,1.01,.61,1.57l-21.35,19.59c-.35,.32-.39,.86-.1,1.23l23.35,29.25c.47,.59,.05,1.47-.71,1.47Z"/><path class="cls-2" d="M268.31,325.29c0,1.44-.13,3.18-.38,5.23-.06,.46-.45,.82-.91,.82h-37.83c-.61,0-1.07,.6-.88,1.18,2.17,6.75,7.22,10.12,15.15,10.12,5.86,0,11.31-1.61,16.35-4.83,.44-.28,1.02-.15,1.27,.3l4.57,8.08c.23,.41,.11,.95-.28,1.22-6.59,4.55-14.09,6.82-22.5,6.82-9.29,0-16.44-2.7-21.44-8.09-4.94-5.33-7.41-11.89-7.41-19.68s2.57-14.78,7.7-19.98c5.13-5.26,11.79-7.89,19.98-7.89,7.73,0,14.1,2.4,19.1,7.21,5,4.81,7.5,11.3,7.5,19.49Zm-26.6-15.3c-3.44,0-6.38,.99-8.82,2.97-2.15,1.75-3.68,4.07-4.59,6.96-.18,.58,.28,1.18,.89,1.18h24.63c.59,0,1.05-.56,.9-1.13-.75-2.91-2.16-5.24-4.23-7-2.34-1.98-5.26-2.97-8.77-2.97Z"/><path class="cls-2" d="M313.49,340.08l3.47,9.17c.15,.41,0,.88-.37,1.1-4.28,2.65-9.3,3.98-15.06,3.98-6.11,0-10.72-1.77-13.84-5.31-3.12-3.54-4.68-8.75-4.68-15.64v-21.03c0-.49-.4-.89-.89-.89h-6.88c-.49,0-.89-.4-.89-.89v-9.71c0-.49,.4-.89,.89-.89h6.98c.49,0,.89-.4,.89-.89v-8c0-.49,.4-.89,.89-.89h11.85c.49,0,.89,.4,.89,.89v8c0,.49,.4,.89,.89,.89h15.75c.49,0,.89,.4,.89,.89v9.71c0,.49-.4,.89-.89,.89h-15.75c-.49,0-.89,.4-.89,.89v20.15c0,6.24,2.5,9.35,7.5,9.35,2.47,0,5.12-.74,7.97-2.23,.48-.25,1.07-.05,1.26,.46Z"/><path class="cls-2" d="M363.32,354.28c-10.74,0-19.65-3.55-26.74-10.64-7.16-7.16-10.73-15.94-10.73-26.35s3.61-19.36,10.83-26.64c7.29-7.29,16.2-10.93,26.74-10.93s19.42,3.64,26.64,10.93c7.29,7.29,10.93,16.1,10.93,26.45s-3.64,19.13-10.93,26.35c-7.22,7.22-16.14,10.83-26.74,10.83Zm22.64-37.18c0-6.64-2.18-12.13-6.54-16.49-4.43-4.42-9.76-6.64-16.01-6.64s-11.58,2.21-16,6.64c-4.36,4.36-6.54,9.86-6.54,16.49s2.15,12.04,6.44,16.39c4.36,4.36,9.73,6.54,16.1,6.54s11.74-2.18,16.1-6.54c4.36-4.36,6.5-9.82,6.44-16.39Z"/><g><path class="cls-4" d="M349.57,325.06l6.17-4.67c2.84,1.66,6.37,1.36,8.71-.67,3.05-2.65,2.39-6.76,2.35-6.96,1.87-1.48,3.73-2.96,5.6-4.44,2.37,5.91,8.51,19.44,20.64,30.18,4.48,3.97,9.23,8.17,16.76,11.11,5.11,1.99,9.86,2.76,9.76,3.62-.11,.97-6.31,1.14-10.51,1.03-5.72-.14-16.03-.49-28.06-5.31-16.65-6.68-26.83-18.01-31.43-23.88Z"/><path class="cls-2" d="M361.97,329.47l11.35-8.13c.27-.19,.33-.56,.14-.83h0c-.19-.27-.56-.33-.83-.14l-11.35,8.13c-.26,.19-.33,.55-.15,.81h0c.19,.28,.56,.34,.83,.15Z"/></g><path class="cls-2" d="M101.11,352.68v-57.65c0-.21-.17-.38-.38-.38h-19.92c-.21,0-.38-.17-.38-.38v-13.26c0-.21,.17-.38,.38-.38h55.3c.21,0,.38,.17,.38,.38v13.26c0,.21-.17,.38-.38,.38h-19.92c-.21,0-.38,.17-.38,.38v57.65c0,.21-.17,.38-.38,.38h-13.94c-.21,0-.38-.17-.38-.38Z"/></g></g></svg>