<?xml version="1.0" encoding="UTF-8"?><svg id="Layer_1" xmlns="http://www.w3.org/2000/svg" xmlns:xlink="http://www.w3.org/1999/xlink" viewBox="0 0 300 300"><defs><style>.cls-1{fill:url(#linear-gradient);}.cls-2{fill:#fff;}.cls-3{fill:#4267b2;}.cls-4{fill:url(#linear-gradient-3);}.cls-5{fill:url(#linear-gradient-2);}</style><linearGradient id="linear-gradient" x1="72.6" y1="171.96" x2="167.75" y2="76.81" gradientUnits="userSpaceOnUse"><stop offset="0" stop-color="#0ad1ff"/><stop offset="1" stop-color="#3c9dff"/></linearGradient><linearGradient id="linear-gradient-2" x1="1351.35" y1="-1130.41" x2="1431.59" y2="-1130.41" gradientTransform="translate(-909.81 1504.08) rotate(-12.05)" xlink:href="#linear-gradient"/><linearGradient id="linear-gradient-3" x1="209.74" y1="198.78" x2="251.74" y2="198.78" xlink:href="#linear-gradient"/></defs><rect class="cls-3" x="0" y="0" width="300" height="300"/><g><g><path class="cls-1" d="M48.26,147.61l5.87-15.69c7.12-.26,13.23-4.88,15.16-11.32,2.52-8.39-3.47-15.14-3.77-15.46,1.7-4.87,3.4-9.74,5.1-14.61,11.18,8.06,38.08,25.7,72.72,31.28,12.8,2.06,26.35,4.25,43.53,.9,11.65-2.28,21.24-6.37,22.06-4.69,.93,1.91-10.23,9.39-18.03,14.06-10.62,6.37-29.89,17.68-57.48,22.8-38.2,7.09-69.96-1.86-85.16-7.27Z"/><path class="cls-5" d="M251.74,88.15l-1.23,8.27c-3.45,.87-5.95,3.76-6.22,7.11-.35,4.36,3.27,7.03,3.45,7.15-.32,2.55-.65,5.11-.97,7.67-6.3-2.77-21.27-8.58-38.76-7.69-6.46,.33-13.31,.67-21.35,4.1-5.45,2.33-9.7,5.32-10.28,4.59-.65-.83,4.02-5.65,7.34-8.75,4.52-4.21,12.75-11.75,25.69-17.12,17.91-7.44,34.35-6.39,42.34-5.33Z"/><path class="cls-2" d="M76.05,141.33l11.34-28.04c.27-.66-.05-1.4-.71-1.67h0c-.66-.27-1.4,.05-1.67,.71l-11.34,28.04c-.26,.64,.04,1.38,.68,1.66h0c.66,.29,1.43-.03,1.7-.69Z"/><path class="cls-2" d="M238.32,109.27l2.97-15.67c.07-.37-.17-.72-.54-.79h0c-.37-.07-.72,.17-.79,.54l-2.97,15.67c-.07,.36,.16,.71,.52,.79h0c.37,.08,.74-.16,.81-.53Z"/></g><g><path class="cls-2" d="M68.91,211.84h-7.67c-.32,0-.58-.26-.58-.58v-38.41s0-.07,0-.11c.49-.09,1.19-.23,2.01-.45,.5-.13,1.23-.37,2.08-.64,1.39-.45,2.71-.92,3.96-1.4,.38-.14,.79,.14,.79,.54,0,13.49,0,26.97,0,40.46,0,.32-.26,.58-.58,.58Z"/><path class="cls-2" d="M87.85,185.31c0,1.44-.49,2.65-1.46,3.62s-2.18,1.46-3.62,1.46-2.65-.49-3.63-1.46c-.97-.97-1.46-2.18-1.46-3.62s.49-2.63,1.46-3.57c.97-.97,2.18-1.46,3.63-1.46s2.65,.49,3.62,1.46c.97,.94,1.46,2.12,1.46,3.57Z"/><path class="cls-2" d="M86.85,194.27v17.17c0,.22-.24,.4-.53,.4h-7.17c-.3,0-.53-.18-.53-.4v-17.17c0-.22,.24-.4,.53-.4h7.17c.3,0,.53,.18,.53,.4Z"/><path class="cls-2" d="M125.95,211.84h-8.72c-.17,0-.33-.08-.43-.21l-10.01-12.95c-.19-.25-.55-.28-.79-.07l-1.55,1.38c-.12,.1-.18,.25-.18,.4v10.91c0,.3-.24,.54-.54,.54h-7.16c-.3,0-.54-.24-.54-.54v-36.66c0-.3,.24-.54,.54-.54h7.16c.3,0,.54,.24,.54,.54v14.96c0,.47,.57,.72,.91,.39l10.51-9.87c.1-.09,.23-.15,.37-.15h8.8c.49,0,.73,.61,.37,.94l-12.81,11.76c-.21,.19-.23,.51-.06,.74l14.01,17.55c.28,.35,.03,.88-.42,.88Z"/><path class="cls-2" d="M160.99,195.18c0,.86-.08,1.91-.23,3.14-.03,.27-.27,.49-.55,.49h-22.7c-.37,0-.64,.36-.53,.71,1.3,4.05,4.33,6.07,9.09,6.07,3.52,0,6.79-.97,9.81-2.9,.26-.17,.61-.09,.76,.18l2.74,4.85c.14,.25,.07,.57-.17,.73-3.95,2.73-8.45,4.09-13.5,4.09-5.57,0-9.86-1.62-12.86-4.85-2.96-3.2-4.44-7.13-4.44-11.81s1.54-8.87,4.62-11.99c3.08-3.16,7.07-4.74,11.99-4.74,4.64,0,8.46,1.44,11.46,4.33,3,2.89,4.5,6.78,4.5,11.69Zm-15.96-9.18c-2.07,0-3.83,.59-5.29,1.78-1.29,1.05-2.21,2.44-2.76,4.17-.11,.35,.17,.71,.53,.71h14.78c.35,0,.63-.34,.54-.68-.45-1.75-1.29-3.15-2.54-4.2-1.4-1.19-3.16-1.78-5.26-1.78Z"/><path class="cls-2" d="M188.1,204.05l2.08,5.5c.09,.24,0,.53-.22,.66-2.57,1.59-5.58,2.39-9.03,2.39-3.66,0-6.43-1.06-8.3-3.19-1.87-2.12-2.81-5.25-2.81-9.38v-12.62c0-.3-.24-.54-.54-.54h-4.13c-.3,0-.54-.24-.54-.54v-5.83c0-.3,.24-.54,.54-.54h4.19c.3,0,.54-.24,.54-.54v-4.8c0-.3,.24-.54,.54-.54h7.11c.3,0,.54,.24,.54,.54v4.8c0,.3,.24,.54,.54,.54h9.45c.3,0,.54,.24,.54,.54v5.83c0,.3-.24,.54-.54,.54h-9.45c-.3,0-.54,.24-.54,.54v12.09c0,3.74,1.5,5.61,4.5,5.61,1.48,0,3.07-.45,4.78-1.34,.29-.15,.64-.03,.76,.27Z"/><path class="cls-2" d="M217.99,212.57c-6.44,0-11.79-2.13-16.04-6.38-4.29-4.29-6.44-9.56-6.44-15.81s2.17-11.61,6.5-15.99c4.37-4.37,9.72-6.56,16.04-6.56s11.65,2.19,15.99,6.56c4.37,4.37,6.56,9.66,6.56,15.87s-2.19,11.48-6.56,15.81c-4.33,4.33-9.68,6.5-16.04,6.5Zm13.58-22.31c0-3.98-1.31-7.28-3.92-9.9-2.66-2.65-5.86-3.98-9.6-3.98s-6.95,1.33-9.6,3.98c-2.62,2.62-3.92,5.91-3.92,9.9s1.29,7.22,3.86,9.84c2.62,2.62,5.84,3.92,9.66,3.92s7.05-1.31,9.66-3.92c2.61-2.61,3.9-5.89,3.86-9.84Z"/><g><path class="cls-4" d="M209.74,195.03l3.7-2.8c1.71,.99,3.82,.82,5.23-.4,1.83-1.59,1.43-4.06,1.41-4.18,1.12-.89,2.24-1.78,3.36-2.66,1.42,3.54,5.1,11.66,12.38,18.11,2.69,2.38,5.54,4.9,10.06,6.66,3.07,1.2,5.92,1.66,5.86,2.17-.06,.58-3.79,.68-6.31,.62-3.43-.08-9.62-.29-16.84-3.19-9.99-4.01-16.1-10.81-18.86-14.33Z"/><path class="cls-2" d="M217.18,197.68l6.81-4.88c.16-.11,.2-.34,.08-.5h0c-.11-.16-.34-.2-.5-.08l-6.81,4.88c-.16,.11-.2,.33-.09,.49h0c.11,.17,.34,.21,.5,.09Z"/></g><path class="cls-2" d="M60.67,211.61v-34.59c0-.13-.1-.23-.23-.23h-11.95c-.13,0-.23-.1-.23-.23v-7.95c0-.13,.1-.23,.23-.23h33.18c.13,0,.23,.1,.23,.23v7.95c0,.13-.1,.23-.23,.23h-11.95c-.13,0-.23,.1-.23,.23v34.59c0,.13-.1,.23-.23,.23h-8.36c-.13,0-.23-.1-.23-.23Z"/></g></g></svg>