<?xml version="1.0" encoding="UTF-8"?><svg id="Layer_1" xmlns="http://www.w3.org/2000/svg" xmlns:xlink="http://www.w3.org/1999/xlink" viewBox="0 0 150 150"><defs><style>.cls-1{fill:url(#linear-gradient);}.cls-2{fill:#fff;}.cls-3{fill:#4267b2;}.cls-4{fill:url(#linear-gradient-3);}.cls-5{fill:url(#linear-gradient-2);}</style><linearGradient id="linear-gradient" x1="36.3" y1="85.98" x2="83.88" y2="38.4" gradientUnits="userSpaceOnUse"><stop offset="0" stop-color="#0ad1ff"/><stop offset="1" stop-color="#3c9dff"/></linearGradient><linearGradient id="linear-gradient-2" x1="1319.34" y1="-1201.27" x2="1359.46" y2="-1201.27" gradientTransform="translate(-951.57 1508.48) rotate(-12.05)" xlink:href="#linear-gradient"/><linearGradient id="linear-gradient-3" x1="104.87" y1="99.39" x2="125.87" y2="99.39" xlink:href="#linear-gradient"/></defs><rect class="cls-3" x="0" y="0" width="150" height="150"/><g><g><path class="cls-1" d="M24.13,73.81l2.94-7.85c3.56-.13,6.61-2.44,7.58-5.66,1.26-4.19-1.74-7.57-1.88-7.73,.85-2.43,1.7-4.87,2.55-7.3,5.59,4.03,19.04,12.85,36.36,15.64,6.4,1.03,13.18,2.12,21.76,.45,5.83-1.14,10.62-3.19,11.03-2.34,.47,.95-5.11,4.69-9.01,7.03-5.31,3.18-14.95,8.84-28.74,11.4-19.1,3.54-34.98-.93-42.58-3.64Z"/><path class="cls-5" d="M125.87,44.07l-.62,4.14c-1.72,.44-2.97,1.88-3.11,3.55-.18,2.18,1.64,3.51,1.73,3.58-.16,1.28-.32,2.56-.48,3.83-3.15-1.38-10.64-4.29-19.38-3.85-3.23,.16-6.66,.34-10.67,2.05-2.73,1.16-4.85,2.66-5.14,2.29-.33-.42,2.01-2.83,3.67-4.37,2.26-2.11,6.38-5.87,12.84-8.56,8.96-3.72,17.17-3.19,21.17-2.66Z"/><path class="cls-2" d="M38.03,70.66l5.67-14.02c.13-.33-.03-.7-.35-.83h0c-.33-.13-.7,.03-.83,.35l-5.67,14.02c-.13,.32,.02,.69,.34,.83h0c.33,.14,.72-.01,.85-.35Z"/><path class="cls-2" d="M119.16,54.63l1.49-7.83c.03-.18-.09-.36-.27-.39h0c-.18-.03-.36,.09-.39,.27l-1.49,7.83c-.03,.18,.08,.35,.26,.39h0c.19,.04,.37-.08,.4-.27Z"/></g><g><path class="cls-2" d="M34.46,105.92h-3.83c-.16,0-.29-.13-.29-.29v-19.2s0-.04,0-.06c.25-.04,.59-.11,1-.22,.25-.07,.62-.18,1.04-.32,.69-.22,1.36-.46,1.98-.7,.19-.07,.39,.07,.39,.27,0,6.74,0,13.49,0,20.23,0,.16-.13,.29-.29,.29Z"/><path class="cls-2" d="M43.92,92.66c0,.72-.24,1.33-.73,1.81s-1.09,.73-1.81,.73-1.33-.24-1.81-.73c-.49-.49-.73-1.09-.73-1.81s.24-1.32,.73-1.78c.49-.49,1.09-.73,1.81-.73s1.33,.24,1.81,.73c.49,.47,.73,1.06,.73,1.78Z"/><path class="cls-2" d="M43.43,97.14v8.58c0,.11-.12,.2-.27,.2h-3.59c-.15,0-.27-.09-.27-.2v-8.58c0-.11,.12-.2,.27-.2h3.59c.15,0,.27,.09,.27,.2Z"/><path class="cls-2" d="M62.98,105.92h-4.36c-.08,0-.16-.04-.21-.11l-5-6.48c-.1-.12-.28-.14-.39-.04l-.77,.69c-.06,.05-.09,.12-.09,.2v5.45c0,.15-.12,.27-.27,.27h-3.58c-.15,0-.27-.12-.27-.27v-18.33c0-.15,.12-.27,.27-.27h3.58c.15,0,.27,.12,.27,.27v7.48c0,.24,.28,.36,.46,.2l5.25-4.94c.05-.05,.12-.07,.19-.07h4.4c.25,0,.36,.3,.18,.47l-6.41,5.88c-.1,.1-.12,.26-.03,.37l7,8.78c.14,.18,.02,.44-.21,.44Z"/><path class="cls-2" d="M80.49,97.59c0,.43-.04,.95-.11,1.57-.02,.14-.14,.24-.27,.24h-11.35c-.18,0-.32,.18-.26,.35,.65,2.02,2.17,3.04,4.55,3.04,1.76,0,3.39-.48,4.9-1.45,.13-.08,.3-.05,.38,.09l1.37,2.43c.07,.12,.03,.29-.08,.37-1.98,1.36-4.23,2.05-6.75,2.05-2.79,0-4.93-.81-6.43-2.43-1.48-1.6-2.22-3.57-2.22-5.91s.77-4.43,2.31-5.99c1.54-1.58,3.54-2.37,5.99-2.37,2.32,0,4.23,.72,5.73,2.16,1.5,1.44,2.25,3.39,2.25,5.85Zm-7.98-4.59c-1.03,0-1.91,.3-2.65,.89-.65,.53-1.1,1.22-1.38,2.09-.05,.17,.08,.35,.27,.35h7.39c.18,0,.31-.17,.27-.34-.22-.87-.65-1.57-1.27-2.1-.7-.59-1.58-.89-2.63-.89Z"/><path class="cls-2" d="M94.05,102.02l1.04,2.75c.05,.12,0,.26-.11,.33-1.28,.8-2.79,1.19-4.52,1.19-1.83,0-3.22-.53-4.15-1.59-.94-1.06-1.4-2.63-1.4-4.69v-6.31c0-.15-.12-.27-.27-.27h-2.06c-.15,0-.27-.12-.27-.27v-2.91c0-.15,.12-.27,.27-.27h2.09c.15,0,.27-.12,.27-.27v-2.4c0-.15,.12-.27,.27-.27h3.56c.15,0,.27,.12,.27,.27v2.4c0,.15,.12,.27,.27,.27h4.73c.15,0,.27,.12,.27,.27v2.91c0,.15-.12,.27-.27,.27h-4.73c-.15,0-.27,.12-.27,.27v6.05c0,1.87,.75,2.81,2.25,2.81,.74,0,1.54-.22,2.39-.67,.14-.08,.32-.01,.38,.14Z"/><path class="cls-2" d="M108.99,106.28c-3.22,0-5.89-1.06-8.02-3.19-2.15-2.15-3.22-4.78-3.22-7.9s1.08-5.81,3.25-7.99c2.19-2.19,4.86-3.28,8.02-3.28s5.83,1.09,7.99,3.28c2.19,2.19,3.28,4.83,3.28,7.93s-1.09,5.74-3.28,7.9c-2.17,2.17-4.84,3.25-8.02,3.25Zm6.79-11.15c0-1.99-.65-3.64-1.96-4.95-1.33-1.33-2.93-1.99-4.8-1.99s-3.47,.66-4.8,1.99c-1.31,1.31-1.96,2.96-1.96,4.95s.64,3.61,1.93,4.92c1.31,1.31,2.92,1.96,4.83,1.96s3.52-.65,4.83-1.96,1.95-2.95,1.93-4.92Z"/><g><path class="cls-4" d="M104.87,97.52l1.85-1.4c.85,.5,1.91,.41,2.61-.2,.92-.8,.72-2.03,.71-2.09,.56-.44,1.12-.89,1.68-1.33,.71,1.77,2.55,5.83,6.19,9.05,1.35,1.19,2.77,2.45,5.03,3.33,1.53,.6,2.96,.83,2.93,1.09-.03,.29-1.89,.34-3.15,.31-1.71-.04-4.81-.15-8.42-1.59-5-2-8.05-5.4-9.43-7.17Z"/><path class="cls-2" d="M108.59,98.84l3.41-2.44c.08-.06,.1-.17,.04-.25h0c-.06-.08-.17-.1-.25-.04l-3.41,2.44c-.08,.06-.1,.16-.04,.24h0c.06,.08,.17,.1,.25,.04Z"/></g><path class="cls-2" d="M30.33,105.81v-17.3c0-.06-.05-.11-.11-.11h-5.98c-.06,0-.11-.05-.11-.11v-3.98c0-.06,.05-.11,.11-.11h16.59c.06,0,.11,.05,.11,.11v3.98c0,.06-.05,.11-.11,.11h-5.98c-.06,0-.11,.05-.11,.11v17.3c0,.06-.05,.11-.11,.11h-4.18c-.06,0-.11-.05-.11-.11Z"/></g></g></svg>