<?xml version="1.0" encoding="UTF-8"?><svg id="Layer_1" xmlns="http://www.w3.org/2000/svg" viewBox="0 0 809.45 272.74"><defs><style>.cls-1{fill:#fff;}.cls-2{fill:#0ad1ff;}</style></defs><rect class="cls-1" y="0" width="809.45" height="272.74"/><g><path class="cls-2" d="M154.15,237.56h-25.64c-1.07,0-1.94-.87-1.94-1.94V107.21c0-.12-.02-.25-.02-.37,1.64-.3,3.96-.77,6.72-1.49,1.67-.44,4.12-1.23,6.94-2.14,4.65-1.5,9.07-3.07,13.25-4.67,1.27-.48,2.62,.45,2.62,1.81,0,45.09,0,90.18,0,135.26,0,1.07-.87,1.94-1.94,1.94Z"/><path class="cls-2" d="M44.06,88.41l5.44-14.54c6.6-.24,12.25-4.52,14.04-10.49,2.33-7.77-3.22-14.02-3.49-14.32,1.58-4.51,3.15-9.02,4.73-13.53,10.36,7.46,35.28,23.81,67.36,28.98,11.86,1.91,24.41,3.94,40.32,.83,10.8-2.11,19.67-5.9,20.44-4.34,.86,1.77-9.48,8.7-16.7,13.03-9.84,5.9-27.69,16.38-53.25,21.12-35.39,6.57-64.8-1.72-78.89-6.74Z"/><path class="cls-2" d="M232.57,33.33l-1.14,7.67c-3.2,.81-5.51,3.49-5.76,6.58-.33,4.04,3.03,6.51,3.2,6.63-.3,2.37-.6,4.73-.9,7.1-5.83-2.57-19.71-7.95-35.91-7.13-5.99,.3-12.33,.62-19.77,3.8-5.05,2.15-8.99,4.93-9.53,4.25-.6-.77,3.72-5.23,6.8-8.1,4.19-3.9,11.81-10.88,23.8-15.86,16.59-6.89,31.82-5.92,39.22-4.93Z"/><path class="cls-2" d="M69.81,82.59l10.51-25.97c.25-.61-.05-1.3-.66-1.55h0c-.61-.25-1.3,.05-1.55,.66l-10.51,25.97c-.24,.6,.04,1.28,.63,1.53h0c.61,.27,1.32-.02,1.58-.64Z"/><path class="cls-2" d="M220.13,52.89l2.75-14.51c.06-.34-.16-.67-.5-.73h0c-.34-.06-.67,.16-.73,.5l-2.75,14.51c-.06,.33,.15,.66,.48,.73h0c.34,.08,.68-.15,.75-.49Z"/><path class="cls-2" d="M217.45,128.19c0,4.82-1.63,8.86-4.89,12.12-3.26,3.26-7.3,4.89-12.12,4.89s-8.86-1.63-12.12-4.89c-3.26-3.26-4.89-7.3-4.89-12.12s1.63-8.8,4.89-11.92c3.26-3.26,7.3-4.89,12.12-4.89s8.86,1.63,12.12,4.89c3.26,3.13,4.89,7.1,4.89,11.92Z"/><rect class="cls-2" x="186.57" y="156.4" width="27.56" height="81.16" rx="1.79" ry="1.79"/><path class="cls-2" d="M344.83,237.56h-29.17c-.56,0-1.09-.26-1.43-.7l-33.45-43.3c-.64-.83-1.85-.94-2.64-.24l-5.18,4.62c-.39,.34-.61,.84-.61,1.35v36.47c0,1-.81,1.81-1.81,1.81h-23.94c-1,0-1.81-.81-1.81-1.81V113.19c0-1,.81-1.81,1.81-1.81h23.94c1,0,1.81,.81,1.81,1.81v50.01c0,1.59,1.89,2.41,3.05,1.32l35.13-33c.34-.32,.78-.49,1.24-.49h29.43c1.65,0,2.44,2.03,1.22,3.14l-42.83,39.3c-.7,.64-.78,1.72-.19,2.46l46.84,58.68c.95,1.19,.1,2.94-1.42,2.94Z"/><path class="cls-2" d="M461.97,181.85c0,2.88-.26,6.38-.77,10.48-.11,.91-.9,1.64-1.83,1.64h-75.88c-1.22,0-2.14,1.21-1.77,2.37,4.35,13.54,14.49,20.31,30.39,20.31,11.75,0,22.69-3.23,32.8-9.69,.88-.56,2.04-.3,2.55,.6l9.17,16.22c.47,.83,.23,1.91-.56,2.45-13.22,9.12-28.27,13.68-45.13,13.68-18.64,0-32.97-5.41-43-16.22-9.91-10.68-14.86-23.85-14.86-39.48s5.15-29.64,15.44-40.07c10.29-10.56,23.65-15.83,40.07-15.83,15.51,0,28.28,4.82,38.31,14.46,10.03,9.65,15.05,22.67,15.05,39.09Zm-53.36-30.69c-6.91,0-12.8,1.99-17.69,5.96-4.31,3.51-7.39,8.16-9.21,13.96-.37,1.16,.56,2.36,1.78,2.36h49.4c1.18,0,2.1-1.13,1.81-2.27-1.5-5.84-4.32-10.52-8.49-14.05-4.69-3.97-10.56-5.96-17.59-5.96Z"/><path class="cls-2" d="M552.6,211.51l6.96,18.39c.31,.81,0,1.76-.73,2.22-8.59,5.32-18.66,7.98-30.2,7.98-12.25,0-21.5-3.55-27.76-10.65-6.26-7.1-9.38-17.56-9.38-31.37v-42.19c0-.99-.8-1.8-1.8-1.8h-13.81c-.99,0-1.8-.8-1.8-1.8v-19.48c0-.99,.8-1.8,1.8-1.8h14c.99,0,1.8-.8,1.8-1.8v-16.05c0-.99,.8-1.8,1.8-1.8h23.78c.99,0,1.8,.8,1.8,1.8v16.05c0,.99,.8,1.8,1.8,1.8h31.59c.99,0,1.8,.8,1.8,1.8v19.48c0,.99-.8,1.8-1.8,1.8h-31.59c-.99,0-1.8,.8-1.8,1.8v40.43c0,12.51,5.02,18.77,15.05,18.77,4.95,0,10.28-1.49,15.98-4.48,.96-.5,2.15-.1,2.53,.91Z"/><path class="cls-2" d="M652.54,240c-21.53,0-39.42-7.11-53.64-21.34-14.36-14.35-21.53-31.97-21.53-52.86s7.24-38.83,21.73-53.44c14.61-14.61,32.5-21.92,53.64-21.92s38.96,7.31,53.44,21.92c14.62,14.62,21.93,32.3,21.93,53.05s-7.31,38.37-21.93,52.85c-14.49,14.49-32.37,21.73-53.64,21.73Zm45.42-74.58c0-13.31-4.37-24.34-13.12-33.08-8.88-8.87-19.58-13.31-32.11-13.31s-23.23,4.44-32.1,13.31c-8.74,8.74-13.12,19.77-13.12,33.08s4.31,24.15,12.92,32.89c8.74,8.74,19.51,13.12,32.3,13.12s23.56-4.37,32.3-13.12,13.05-19.7,12.92-32.89Z"/><g><path class="cls-2" d="M624.98,181.38l12.37-9.37c5.7,3.32,12.77,2.74,17.48-1.34,6.13-5.32,4.79-13.57,4.72-13.97,3.75-2.97,7.49-5.94,11.24-8.9,4.75,11.85,17.06,38.99,41.4,60.53,8.99,7.96,18.52,16.39,33.62,22.28,10.25,4,19.78,5.54,19.59,7.27-.22,1.95-12.66,2.28-21.08,2.07-11.47-.28-32.16-.98-56.29-10.65-33.41-13.39-53.82-36.13-63.04-47.91Z"/><path class="cls-2" d="M649.84,190.24l22.78-16.32c.53-.38,.66-1.12,.27-1.66h0c-.38-.53-1.12-.66-1.66-.27l-22.78,16.32c-.52,.37-.65,1.1-.29,1.63h0c.37,.55,1.13,.69,1.67,.3Z"/></g></g></svg>