<?xml version="1.0" encoding="UTF-8"?><svg id="Layer_1" xmlns="http://www.w3.org/2000/svg" xmlns:xlink="http://www.w3.org/1999/xlink" viewBox="0 0 300 300"><defs><style>.cls-1{fill:url(#linear-gradient);}.cls-2{fill:#fff;}.cls-3{fill:#4267b2;}</style><linearGradient id="linear-gradient" x1="83.94" y1="167.36" x2="196.15" y2="55.14" gradientUnits="userSpaceOnUse"><stop offset="0" stop-color="#0ad1ff"/><stop offset="1" stop-color="#3c9dff"/></linearGradient></defs><rect class="cls-3" x="0" y="0" width="300" height="300"/><g><path class="cls-2" d="M196.48,193.76l8.5,22.46c.38,.99,0,2.15-.9,2.71-10.49,6.5-22.79,9.75-36.89,9.75-14.96,0-26.26-4.33-33.9-13.01-7.64-8.67-11.46-21.44-11.46-38.31v-51.52c0-1.21-.98-2.19-2.19-2.19h-16.86c-1.21,0-2.19-.98-2.19-2.19v-23.78c0-1.21,.98-2.19,2.19-2.19h17.1c1.21,0,2.19-.98,2.19-2.19v-19.61c0-1.21,.98-2.19,2.19-2.19h29.04c1.21,0,2.19,.98,2.19,2.19v19.61c0,1.21,.98,2.19,2.19,2.19h38.58c1.21,0,2.19,.98,2.19,2.19v23.78c0,1.21-.98,2.19-2.19,2.19h-38.58c-1.21,0-2.19,.98-2.19,2.19v49.37c0,15.28,6.12,22.92,18.38,22.92,6.05,0,12.55-1.82,19.51-5.47,1.17-.61,2.62-.12,3.09,1.12Z"/><g><path class="cls-1" d="M55.22,138.65l6.92-18.51c8.4-.31,15.6-5.76,17.88-13.35,2.97-9.89-4.1-17.85-4.44-18.23,2.01-5.74,4.01-11.49,6.02-17.23,13.19,9.5,44.91,30.31,85.76,36.89,15.09,2.43,31.08,5.01,51.34,1.06,13.74-2.68,25.05-7.51,26.02-5.53,1.1,2.25-12.06,11.07-21.26,16.59-12.53,7.51-35.25,20.85-67.79,26.89-45.05,8.36-82.5-2.19-100.44-8.58Z"/><path class="cls-2" d="M88,131.24l13.38-33.07c.31-.77-.06-1.65-.83-1.97h0c-.77-.31-1.65,.06-1.97,.83l-13.38,33.07c-.31,.76,.05,1.62,.8,1.95h0c.78,.34,1.69-.03,2.01-.82Z"/></g></g></svg>