<?xml version="1.0" encoding="UTF-8"?><svg id="Layer_1" xmlns="http://www.w3.org/2000/svg" xmlns:xlink="http://www.w3.org/1999/xlink" viewBox="0 0 150 150"><defs><style>.cls-1{fill:url(#linear-gradient);}.cls-2{fill:#fff;}.cls-3{fill:#2f3033;}</style><linearGradient id="linear-gradient" x1="41.97" y1="83.68" x2="98.08" y2="27.57" gradientUnits="userSpaceOnUse"><stop offset="0" stop-color="#0ad1ff"/><stop offset="1" stop-color="#3c9dff"/></linearGradient></defs><rect class="cls-3" x="0" y="0" width="150" height="150"/><g><path class="cls-2" d="M98.24,96.88l4.25,11.23c.19,.5,0,1.07-.45,1.35-5.25,3.25-11.39,4.88-18.44,4.88-7.48,0-13.13-2.17-16.95-6.5-3.82-4.34-5.73-10.72-5.73-19.16v-25.76c0-.61-.49-1.1-1.1-1.1h-8.43c-.61,0-1.1-.49-1.1-1.1v-11.89c0-.61,.49-1.1,1.1-1.1h8.55c.61,0,1.1-.49,1.1-1.1v-9.8c0-.61,.49-1.1,1.1-1.1h14.52c.61,0,1.1,.49,1.1,1.1v9.8c0,.61,.49,1.1,1.1,1.1h19.29c.61,0,1.1,.49,1.1,1.1v11.89c0,.61-.49,1.1-1.1,1.1h-19.29c-.61,0-1.1,.49-1.1,1.1v24.69c0,7.64,3.06,11.46,9.19,11.46,3.02,0,6.28-.91,9.76-2.74,.58-.31,1.31-.06,1.54,.56Z"/><g><path class="cls-1" d="M27.61,69.32l3.46-9.25c4.2-.16,7.8-2.88,8.94-6.68,1.48-4.95-2.05-8.93-2.22-9.12,1-2.87,2.01-5.74,3.01-8.61,6.59,4.75,22.46,15.15,42.88,18.45,7.55,1.22,15.54,2.51,25.67,.53,6.87-1.34,12.52-3.76,13.01-2.76,.55,1.12-6.03,5.54-10.63,8.29-6.26,3.75-17.63,10.43-33.9,13.44-22.53,4.18-41.25-1.1-50.22-4.29Z"/><path class="cls-2" d="M44,65.62l6.69-16.53c.16-.39-.03-.83-.42-.98h0c-.39-.16-.83,.03-.98,.42l-6.69,16.53c-.15,.38,.02,.81,.4,.98h0c.39,.17,.84-.01,1-.41Z"/></g></g></svg>