<?xml version="1.0" encoding="UTF-8"?><svg id="Layer_1" xmlns="http://www.w3.org/2000/svg" xmlns:xlink="http://www.w3.org/1999/xlink" viewBox="0 0 500 500"><defs><style>.cls-1{fill:url(#linear-gradient);}.cls-2{fill:#fff;}.cls-3{fill:#2f3033;}</style><linearGradient id="linear-gradient" x1="139.89" y1="278.93" x2="326.92" y2="91.91" gradientUnits="userSpaceOnUse"><stop offset="0" stop-color="#0ad1ff"/><stop offset="1" stop-color="#3c9dff"/></linearGradient></defs><rect class="cls-3" x="0" y="0" width="500" height="500"/><g><path class="cls-2" d="M327.47,322.93l14.16,37.43c.63,1.65,0,3.58-1.5,4.51-17.49,10.84-37.98,16.25-61.48,16.25-24.93,0-43.76-7.22-56.5-21.68-12.73-14.45-19.1-35.74-19.1-63.86v-85.86c0-2.02-1.64-3.65-3.65-3.65h-28.1c-2.02,0-3.65-1.64-3.65-3.65v-39.64c0-2.02,1.64-3.65,3.65-3.65h28.5c2.02,0,3.65-1.64,3.65-3.65v-32.68c0-2.02,1.64-3.65,3.65-3.65h48.39c2.02,0,3.65,1.64,3.65,3.65v32.68c0,2.02,1.64,3.65,3.65,3.65h64.31c2.02,0,3.65,1.64,3.65,3.65v39.64c0,2.02-1.64,3.65-3.65,3.65h-64.31c-2.02,0-3.65,1.64-3.65,3.65v82.28c0,25.46,10.21,38.19,30.64,38.19,10.08,0,20.92-3.04,32.52-9.12,1.95-1.02,4.37-.2,5.15,1.86Z"/><g><path class="cls-1" d="M92.04,231.08l11.54-30.85c14-.52,26-9.6,29.8-22.25,4.94-16.49-6.83-29.75-7.41-30.39,3.34-9.57,6.69-19.14,10.03-28.72,21.98,15.84,74.86,50.51,142.93,61.49,25.16,4.06,51.8,8.35,85.56,1.76,22.91-4.47,41.74-12.52,43.36-9.21,1.83,3.75-20.1,18.46-35.43,27.64-20.88,12.51-58.75,34.75-112.99,44.82-75.08,13.93-137.5-3.65-167.39-14.3Z"/><path class="cls-2" d="M146.67,218.73l22.3-55.11c.52-1.29-.1-2.76-1.39-3.28h0c-1.29-.52-2.76,.1-3.28,1.39l-22.3,55.11c-.51,1.27,.08,2.71,1.33,3.25h0c1.3,.57,2.81-.05,3.34-1.36Z"/></g></g></svg>